# xmcd
# Track frame offsets:
# 150
# 10885
# 23941
# 33074
# 46300
# 56337
# 67800
# 80900
# 93088
# 105695
# 119280
# 132937
# 147138
# 160028
# 172447
# 183336
# 195871
# 210996
# 222100
# 233222
# 245022
# 257114
# 270347
# 281802
# 294309
# 307095
# 319122
# 329645
# 341257
#
# Disc length: 4729 seconds
# Revision: 0
# Processed by: cddbd v1.5.2PL0 Copyright (c) Steve Scherf et al.
# Submitted via: VisiTrax 2.11.3.279 - For more info visit www.synapsa.com
#
DISCID=9f12771d
DTITLE=Various (1920's-1960's) Gospel and Jazz and Blues and Soul and R&B  Artist
DTITLE=s - From Sacred To Secular - A Soul Awakening:- Soul Chronology 7- "An
DTITLE=y Day Now": CD7 of 8: *ReMastered Tracks
DYEAR=1961
DGENRE=Soul
TTITLE0=Vells The - There He Is (At My Door)*
TTITLE1=Joe Tex - I Wanna Be Free*
TTITLE2=Judy Clay - Do You Think That's Right*
TTITLE3=Temptations The - (You're My) Dream Come True*
TTITLE4=Falcons The - Take This Love I've Got*
TTITLE5=Willie Tee - Always Accused*
TTITLE6=Big Daddy Rogers - I'm A Big Man*
TTITLE7=Earl King - Trick Bag*
TTITLE8=Gino Parks - Fire*
TTITLE9=William Bell - You Don't Miss Your Water*
TTITLE10=Johnny "Guitar" Watson - Sweet Lovin' Mama*
TTITLE11=Brenda Holloway - Every Little Bit Hurts* (Unissued)
TTITLE12=Chris Kenner - Something You Got*
TTITLE13=Arthur Alexander - Anna (Go To Him)*
TTITLE14=Solomon Burke - Down In The Valley*
TTITLE15=Sammy Ward - Part Time Love*
TTITLE16=Chuck Jackson - Any Day Now*
TTITLE17=Erma Franklin - Each Night I Cry*
TTITLE18=Hightower Brothers The - Seat In The Kingdom*
TTITLE19=Ike and Tina Turner - I'm Gonna Cut You Loose*
TTITLE20=King Pins The aka The Kelly Brothers - It Wont Be This Way (Always)*
TTITLE21=Marvin Gaye - Stubborn Kind Of Fellow*
TTITLE22=Junior Walker and The All Stars - Good Rockin'*
TTITLE23=Billy Stewart - Fat Boy*
TTITLE24=Paul Walters - She Put Me Down*
TTITLE25=McKinley Mitchell - The Town I Live In*
TTITLE26=Etta James - Don't Cry Baby*
TTITLE27=Wilson Pickett - If You Need Me*
TTITLE28=Miracles The - You've Really Got A Hold On Me*
EXTD=Eight CD's in a book style holder. Discs and Tracks in chronological o
EXTD=rder with a 35 page central section with alternate pages of Track Info
EXTD=rmation and Performer Photo'sCompiled, ReMastered and Presented: History O
EXTD=f Soul Records: 2015
EXTT0=
EXTT1=
EXTT2=
EXTT3=
EXTT4=
EXTT5=
EXTT6=
EXTT7=
EXTT8=
EXTT9=
EXTT10=
EXTT11=
EXTT12=
EXTT13=
EXTT14=
EXTT15=
EXTT16=
EXTT17=
EXTT18=
EXTT19=
EXTT20=
EXTT21=
EXTT22=
EXTT23=
EXTT24=
EXTT25=
EXTT26=
EXTT27=
EXTT28=
PLAYORDER=
